# xmcd
#
# Track frame offsets:
# 150
# 11777
# 22402
# 32755
# 44305
# 54342
# 66735
# 82047
# 94345
# 105610
# 121670
# 132022
# 146522
# 159542
# 172215
# 183122
# 195347
# 208620
# 223162
# 234027
# 245685
# 258762
# 268265
# 280157
# 293035
# 306535
# 319235
# 332647
#
# Disc length: 4611 seconds
#
#
# Revision: 0
# Processed by: cddbd v1.4PL0 Copyright (c) Steve Scherf et al.
# Submitted via: FreeRIP 2.00 
#
DISCID=a812011c
DTITLE=Vernon Oxford - Keeper Of The Flame - Disc 2
DYEAR=1995
DGENRE=Country
TTITLE0=What Will I Live On Tomorrow
TTITLE1=Wine, Women And Songs
TTITLE2=I'd Rather See You Wave Goodbye
TTITLE3=This Is Where I Came In
TTITLE4=What Color Is The Wind
TTITLE5=Hazard County Saturday Night
TTITLE6=The Rise Of Seymour Simmons
TTITLE7=How High Does The Cotton Grow, Mama
TTITLE8=I've Got To Get Peter Off Your Mind
TTITLE9=We Came Awfully Close To Sin
TTITLE10=Love And Pearl And Me
TTITLE11=She's Always There
TTITLE12=I Wish You Would Leave Me Alone
TTITLE13=We Sure Danced Us Some Goodn's
TTITLE14=Woman You've Got A Hold Of Me
TTITLE15=Soft And Warm
TTITLE16=Surprise Birthday Party
TTITLE17=Shadows Of My Mind
TTITLE18=A Country Singer
TTITLE19=Anymore
TTITLE20=God Keeps The Wild Flowers Blooming
TTITLE21=Giving The Pill
TTITLE22=Beautiful Junk
TTITLE23=Mowing The Lawn
TTITLE24=Wait A Little Longer Please Jesus
TTITLE25=Clean Your Own Tables
TTITLE26=You're Wanting Me Gone
TTITLE27=Don't Be Late
EXTD=
EXTT0=
EXTT1=
EXTT2=
EXTT3=
EXTT4=
EXTT5=
EXTT6=
EXTT7=
EXTT8=
EXTT9=
EXTT10=
EXTT11=
EXTT12=
EXTT13=
EXTT14=
EXTT15=
EXTT16=
EXTT17=
EXTT18=
EXTT19=
EXTT20=
EXTT21=
EXTT22=
EXTT23=
EXTT24=
EXTT25=
EXTT26=
EXTT27=
PLAYORDER=
